<?xml version="1.0" encoding="UTF-8" standalone="no"?>
<!DOCTYPE svg PUBLIC "-//W3C//DTD SVG 1.1//EN"
 "http://www.w3.org/Graphics/SVG/1.1/DTD/svg11.dtd">
<!-- Generated by graphviz version 2.38.0 (20140413.2041)
 -->
<!-- Title: G Pages: 1 -->
<svg width="1030pt" height="124pt"
 viewBox="0.00 0.00 1030.26 123.98" xmlns="http://www.w3.org/2000/svg" xmlns:xlink="http://www.w3.org/1999/xlink">
<g id="graph0" class="graph" transform="scale(1 1) rotate(0) translate(7.992 115.992)">
<title>G</title>
<polygon fill="#000000" stroke="none" points="-7.992,7.992 -7.992,-115.992 1022.26,-115.992 1022.26,7.992 -7.992,7.992"/>
<!-- index -->
<g id="node1" class="node"><title>index</title>
<ellipse fill="none" stroke="#c6c5fe" cx="508.286" cy="-90" rx="32.4942" ry="18"/>
<text text-anchor="middle" x="508.286" y="-86.3" font-family="Arial" font-size="14.00" fill="#c6c5fe">index</text>
</g>
<!-- ../node_modules/fun&#45;curry/src/index -->
<g id="node2" class="node"><title>../node_modules/fun&#45;curry/src/index</title>
<ellipse fill="none" stroke="#cfffac" cx="157.286" cy="-18" rx="157.072" ry="18"/>
<text text-anchor="middle" x="157.286" y="-14.3" font-family="Arial" font-size="14.00" fill="#cfffac">../node_modules/fun&#45;curry/src/index</text>
</g>
<!-- index&#45;&gt;../node_modules/fun&#45;curry/src/index -->
<g id="edge1" class="edge"><title>index&#45;&gt;../node_modules/fun&#45;curry/src/index</title>
<path fill="none" stroke="#757575" d="M478.056,-82.9713C426.175,-72.6247 318.415,-51.1339 242.14,-35.9225"/>
<polygon fill="#757575" stroke="#757575" points="242.556,-32.4366 232.065,-33.9131 241.187,-39.3014 242.556,-32.4366"/>
</g>
<!-- ../node_modules/fun&#45;predicate/src/index -->
<g id="node3" class="node"><title>../node_modules/fun&#45;predicate/src/index</title>
<ellipse fill="none" stroke="#cfffac" cx="508.286" cy="-18" rx="176.269" ry="18"/>
<text text-anchor="middle" x="508.286" y="-14.3" font-family="Arial" font-size="14.00" fill="#cfffac">../node_modules/fun&#45;predicate/src/index</text>
</g>
<!-- index&#45;&gt;../node_modules/fun&#45;predicate/src/index -->
<g id="edge2" class="edge"><title>index&#45;&gt;../node_modules/fun&#45;predicate/src/index</title>
<path fill="none" stroke="#757575" d="M508.286,-71.6966C508.286,-63.9827 508.286,-54.7125 508.286,-46.1124"/>
<polygon fill="#757575" stroke="#757575" points="511.786,-46.1043 508.286,-36.1043 504.786,-46.1044 511.786,-46.1043"/>
</g>
<!-- ../node_modules/guarded/src/index -->
<g id="node4" class="node"><title>../node_modules/guarded/src/index</title>
<ellipse fill="none" stroke="#cfffac" cx="858.286" cy="-18" rx="155.972" ry="18"/>
<text text-anchor="middle" x="858.286" y="-14.3" font-family="Arial" font-size="14.00" fill="#cfffac">../node_modules/guarded/src/index</text>
</g>
<!-- index&#45;&gt;../node_modules/guarded/src/index -->
<g id="edge3" class="edge"><title>index&#45;&gt;../node_modules/guarded/src/index</title>
<path fill="none" stroke="#757575" d="M538.43,-82.9713C590.242,-72.6088 697.946,-51.0679 774.023,-35.8525"/>
<polygon fill="#757575" stroke="#757575" points="774.952,-39.2362 784.071,-33.8429 773.579,-32.3721 774.952,-39.2362"/>
</g>
</g>
</svg>
